{"accessors" : [{"bufferView" : 0, "byteOffset" : 0, "componentType" : 5123, "count" : 618, "type" : "SCALAR", "max" : [505], "min" : [0]}, {"bufferView" : 1, "byteOffset" : 0, "componentType" : 5126, "count" : 506, "type" : "VEC3", "max" : [13.666999816894531, -10.755800247192383, 29.588199615478516], "min" : [-17.892799377441406, -37.15439987182617, -15.833000183105469], "name" : "POSITION"}], "asset" : {"generator" : "Aspose.3D 21.8", "version" : "2.0"}, "buffers" : [{"uri" : "data:application/octet-stream;base64,", "byteLength" : 8660}], "bufferViews" : [{"buffer" : 0, "byteOffset" : 0, "byteLength" : 1236, "target" : 34963}, {"buffer" : 0, "byteOffset" : 1240, "byteLength" : 7416, "byteStride" : 12, "target" : 34962}], "meshes" : [{"primitives" : [{"attributes" : {"POSITION" : 1}, "indices" : 0, "mode" : 4}], "name" : ""}], "nodes" : [{"mesh" : 0}, {"children" : [0]}], "scene" : 0, "scenes" : [{"nodes" : [1]}]}